<?xml version="1.0" encoding="UTF-8"?>
<svg version="1.1" xmlns="http://www.w3.org/2000/svg" width="500" height="500">
<path d="M0 0 C1.29797012 -0.00315216 2.59594025 -0.00630432 3.9332428 -0.009552 C5.35580479 -0.00776236 6.77836647 -0.00571144 8.20092773 -0.00341797 C9.65298987 -0.00409125 11.1050519 -0.00506148 12.55711365 -0.00631714 C15.60107496 -0.00779251 18.64500694 -0.0056444 21.68896484 -0.00097656 C25.59889079 0.00472571 29.50874817 0.00143757 33.41867161 -0.00454903 C36.41684999 -0.00815466 39.41501198 -0.00701614 42.41319084 -0.00442123 C43.8553563 -0.00375223 45.29752322 -0.00457946 46.73968697 -0.00690079 C48.75093687 -0.00942785 50.76219197 -0.00489626 52.7734375 0 C53.9199025 0.00079559 55.06636749 0.00159119 56.24757385 0.00241089 C58.82202148 0.12939453 58.82202148 0.12939453 59.82202148 1.12939453 C59.9631731 3.79998304 59.86449256 6.45371691 59.82202148 9.12939453 C58.74823242 9.42072266 57.67444336 9.71205078 56.56811523 10.01220703 C44.27478736 13.33522859 44.27478736 13.33522859 35.56420898 22.14892578 C32.8877992 27.19292884 31.69592359 31.55345413 31.70176697 37.27996826 C31.7003923 38.32040787 31.69901764 39.36084747 31.69760132 40.43281555 C31.70119659 41.56857529 31.70479187 42.70433502 31.70849609 43.87451172 C31.70827705 45.67492165 31.70827705 45.67492165 31.70805359 47.51170349 C31.70863064 50.79856892 31.71364403 54.08539171 31.72062755 57.37224865 C31.72688119 60.80889386 31.72746648 64.24553992 31.72865295 67.68218994 C31.73176034 74.187978 31.73996574 80.69374923 31.75000244 87.19952989 C31.76118198 94.60697635 31.76667867 102.01442363 31.77169788 109.42187643 C31.78214884 124.65772553 31.79973681 139.89355786 31.82202148 155.12939453 C32.3033104 154.84600062 32.78459932 154.56260672 33.28047276 154.27062511 C35.49349407 152.9677148 37.7067067 151.6651298 39.91992188 150.36254883 C41.05529263 149.69400501 41.05529263 149.69400501 42.21360016 149.01195526 C48.54265794 145.28750425 54.89416386 141.6040071 61.25952148 137.94189453 C62.35441895 137.310979 63.44931641 136.68006348 64.57739258 136.0300293 C67.99188856 134.06248997 71.40690937 132.09586419 74.82202148 130.12939453 C87.83679722 122.63389382 100.84657814 115.13034253 113.82202148 107.56689453 C114.78253418 107.00736084 115.74304688 106.44782715 116.73266602 105.87133789 C133.97868364 96.96062495 133.97868364 96.96062495 145.07202148 81.87939453 C146.55433826 74.46781065 146.08433249 68.34051085 143.82202148 61.12939453 C143.69702148 58.19189453 143.69702148 58.19189453 143.82202148 56.12939453 C145.94582383 54.83994311 147.26975246 54.08482787 149.7824707 54.28759766 C152.63152542 55.46350628 153.24883658 56.96998172 154.70483398 59.66064453 C155.48842285 61.08183594 155.48842285 61.08183594 156.2878418 62.53173828 C156.83537109 63.55396484 157.38290039 64.57619141 157.94702148 65.62939453 C159.10988282 67.74463865 160.27395528 69.85921739 161.43920898 71.97314453 C162.01251953 73.02115234 162.58583008 74.06916016 163.17651367 75.14892578 C165.40476827 79.18490977 167.7214504 83.16374456 170.07202148 87.12939453 C170.66563477 88.13595093 170.66563477 88.13595093 171.27124023 89.1628418 C173.30467798 92.60181789 175.36212686 96.02519915 177.43920898 99.43798828 C177.86041016 100.13214844 178.28161133 100.82630859 178.71557617 101.54150391 C179.51672059 102.85916728 180.32185521 104.17441563 181.1315918 105.48681641 C183.82202148 109.90803207 183.82202148 109.90803207 183.82202148 112.12939453 C180.91653266 114.17108938 179.42060103 115.12939453 175.82202148 115.12939453 C174.31420898 113.55517578 174.31420898 113.55517578 172.69702148 111.44189453 C167.9973212 105.87334209 162.67187489 102.32291234 155.38452148 101.19189453 C146.50426394 100.78889571 139.25802578 103.46541553 131.69702148 107.87939453 C130.84430664 108.36255127 129.9915918 108.84570801 129.11303711 109.34350586 C126.33948875 110.92227567 123.57962099 112.52294695 120.82202148 114.12939453 C119.89550781 114.66677246 118.96899414 115.20415039 118.0144043 115.7578125 C113.07824401 118.62295744 108.15121946 121.50333743 103.22827148 124.39111328 C96.45550243 128.35553308 89.64124258 132.24574083 82.82202148 136.12939453 C72.75192144 141.86557803 62.71775232 147.66006892 52.72241211 153.52587891 C47.1297554 156.80378613 41.50503707 160.01059191 35.82202148 163.12939453 C39.17554683 165.92121388 42.54151947 168.25345568 46.32983398 170.41455078 C47.38895996 171.02177979 48.44808594 171.62900879 49.53930664 172.25463867 C50.66385254 172.89393311 51.78839844 173.53322754 52.94702148 174.19189453 C54.12615779 174.86648455 55.30502879 175.5415385 56.48364258 176.21704102 C58.84021374 177.56721168 61.19783403 178.91551806 63.55639648 180.26220703 C67.86189572 182.72396377 72.15619834 185.20467163 76.44702148 187.69189453 C77.1947583 188.12477783 77.94249512 188.55766113 78.71289062 189.00366211 C83.9380511 192.03073959 89.15445089 195.07267297 94.36889648 198.11816406 C103.64469426 203.53555438 112.92612925 208.94309685 122.22506714 214.32067871 C123.90721442 215.29386464 125.58838498 216.26873822 127.26953125 217.24365234 C128.30005615 217.83887695 129.33058105 218.43410156 130.39233398 219.04736328 C131.29741699 219.57096436 132.2025 220.09456543 133.13500977 220.6340332 C141.67563163 225.38701421 149.67424725 227.99079407 159.44702148 225.44580078 C165.21214412 223.32782128 169.48187985 220.43499923 173.82202148 216.12939453 C174.62639648 215.34564453 175.43077148 214.56189453 176.25952148 213.75439453 C177.03295898 212.95001953 177.03295898 212.95001953 177.82202148 212.12939453 C179.80202148 213.44939453 181.78202148 214.76939453 183.82202148 216.12939453 C182.4774645 219.67373881 180.90973804 222.93738647 179.05639648 226.24267578 C178.50242187 227.23243408 177.94844727 228.22219238 177.37768555 229.24194336 C176.78181641 230.29792725 176.18594727 231.35391113 175.57202148 232.44189453 C174.95810547 233.5346167 174.34418945 234.62733887 173.71166992 235.75317383 C168.65363163 244.7255989 163.48868381 253.63366096 158.26635742 262.51147461 C157.71238281 263.454021 157.1584082 264.39656738 156.58764648 265.36767578 C156.10070312 266.19307861 155.61375977 267.01848145 155.11206055 267.86889648 C153.93852493 269.92524891 152.85648125 272.00032489 151.82202148 274.12939453 C148.44739434 273.5821577 146.73967149 273.07449453 143.82202148 271.12939453 C144.13139648 269.85064453 144.44077148 268.57189453 144.75952148 267.25439453 C146.93764787 257.16872236 147.54929943 249.44939165 142.73999023 240.00439453 C138.40620563 233.30077604 131.6180155 229.9335176 124.82202148 226.12939453 C123.03390048 225.11570741 121.24616814 224.10133454 119.45874023 223.08642578 C115.48795202 220.83621221 111.51166156 218.59604717 107.53295898 216.35986328 C102.72195938 213.64859985 97.94756277 210.88249698 93.19702148 208.06689453 C87.08430749 204.44481673 80.93462411 200.89406381 74.75952148 197.37939453 C65.82837597 192.29607451 56.94414933 187.13554754 48.07958984 181.93701172 C47.13349854 181.38303711 46.18740723 180.8290625 45.21264648 180.25830078 C44.38796875 179.77433838 43.56329102 179.29037598 42.71362305 178.79174805 C40.20091395 177.34721611 37.67568901 175.93144303 35.14129639 174.52549744 C34.33207607 174.07643508 33.52285576 173.62737272 32.68911362 173.16470242 C32.07297321 172.82305081 31.45683281 172.48139921 30.82202148 172.12939453 C30.85924979 188.27208899 30.91920073 204.41451629 31.00592422 220.55701351 C31.04566984 228.05290506 31.07808496 235.5486923 31.09301758 243.04467773 C31.10605744 249.58106453 31.13308122 256.1172214 31.17663455 262.65347868 C31.19919737 266.11183131 31.21493531 269.56990091 31.21390533 273.02833366 C31.21301601 276.89681023 31.24335832 280.7647119 31.27612305 284.63305664 C31.27109268 285.76954147 31.26606232 286.90602631 31.26087952 288.07695007 C31.3864969 297.68497473 33.87115148 305.33649884 40.82202148 312.12939453 C46.55705583 315.97893813 53.18607598 317.51920187 59.82202148 319.12939453 C59.91967773 325.28173828 59.91967773 325.28173828 59.82202148 327.12939453 C58.00998308 328.94143294 55.21219549 328.26654975 52.7734375 328.2746582 C51.47861954 328.28103806 50.18380157 328.28741791 48.8497467 328.29399109 C47.42514076 328.29551964 46.00053431 328.29663367 44.57592773 328.29736328 C43.12483181 328.30057415 41.67373622 328.30393809 40.22264099 328.30744934 C37.17690276 328.31344699 34.13119294 328.3152886 31.08544922 328.31469727 C27.17666292 328.31459562 23.26805817 328.32824762 19.35931492 328.34546947 C16.36109068 328.35657124 13.36291058 328.35861704 10.36466789 328.35808754 C8.92332267 328.35927043 7.48197641 328.36370939 6.04065132 328.37141991 C4.02712453 328.38118239 2.01354481 328.37708724 0 328.37231445 C-1.72089088 328.37445198 -1.72089088 328.37445198 -3.47654724 328.37663269 C-6.17797852 328.12939453 -6.17797852 328.12939453 -8.17797852 326.12939453 C-8.30297852 322.50439453 -8.30297852 322.50439453 -8.17797852 319.12939453 C-7.26016602 318.89865234 -6.34235352 318.66791016 -5.39672852 318.43017578 C4.44054964 315.81585711 12.29335507 313.53829155 17.81420898 304.48486328 C20.99129813 297.05934097 21.10052122 289.97861825 21.04907227 282.02197266 C21.04936432 280.83086884 21.04965637 279.63976501 21.04995728 278.41256714 C21.04880831 275.16927244 21.03882516 271.92615365 21.02480936 268.68289375 C21.01224876 265.28498229 21.01112732 261.88706684 21.00875854 258.48913574 C21.00255936 252.06491278 20.98616984 245.64075845 20.96605957 239.21656561 C20.94365177 231.89851208 20.9326949 224.58045516 20.9226687 217.26237583 C20.9018021 202.21801059 20.86665672 187.17370945 20.82202148 172.12939453 C17.12766878 174.21472623 13.43378865 176.30089367 9.73999023 178.38720703 C8.69903198 178.97477783 7.65807373 179.56234863 6.58557129 180.16772461 C-0.37071467 184.09744017 -7.29456658 188.07329341 -14.17797852 192.12939453 C-22.11736885 196.7852139 -30.09376067 201.36692811 -38.11547852 205.87939453 C-46.8389715 210.78810536 -55.49413106 215.79635762 -64.10131836 220.90576172 C-66.3236467 222.21522676 -68.55624807 223.50576907 -70.79125977 224.79345703 C-71.55647949 225.23665283 -72.32169922 225.67984863 -73.11010742 226.13647461 C-74.56167221 226.97664747 -76.01560008 227.81275762 -77.47241211 228.64379883 C-85.88084709 233.50192708 -85.88084709 233.50192708 -91.49047852 241.19189453 C-91.79598633 241.84287109 -92.10149414 242.49384766 -92.41625977 243.16455078 C-95.53560936 251.21087308 -94.37810733 259.01641952 -92.17797852 267.12939453 C-92.05297852 270.12939453 -92.05297852 270.12939453 -92.17797852 272.12939453 C-95.26607547 273.89402136 -96.41109987 274.12939453 -100.17797852 274.12939453 C-100.45359619 273.62303467 -100.72921387 273.1166748 -101.01318359 272.5949707 C-106.17319473 263.12909993 -111.38029484 253.69776195 -116.80297852 244.37939453 C-117.25302246 243.60418457 -117.70306641 242.82897461 -118.16674805 242.03027344 C-119.95234951 238.95532188 -121.73845313 235.88071863 -123.53393555 232.81152344 C-124.81935187 230.60963112 -126.09354935 228.40159766 -127.36547852 226.19189453 C-127.7523584 225.53543945 -128.13923828 224.87898437 -128.5378418 224.20263672 C-130.47918438 220.8073029 -131.17797852 219.14558019 -131.17797852 215.12939453 C-129.19797852 214.13939453 -127.21797852 213.14939453 -125.17797852 212.12939453 C-124.77708008 212.64888672 -124.37618164 213.16837891 -123.96313477 213.70361328 C-118.38448454 220.54726356 -111.95843385 225.39212577 -102.98657227 226.36767578 C-91.65655968 226.72232197 -82.57114256 221.54024922 -73.11547852 215.81689453 C-71.00657606 214.56349494 -68.89718345 213.31091978 -66.78735352 212.05908203 C-65.70389648 211.41293945 -64.62043945 210.76679688 -63.50415039 210.10107422 C-57.98713031 206.83070911 -52.42557403 203.63828388 -46.86547852 200.44189453 C-44.67394626 199.17909236 -42.48253745 197.91607591 -40.29125977 196.65283203 C-39.25050293 196.0530957 -38.20974609 195.45335937 -37.13745117 194.83544922 C-24.52156852 187.56273944 -11.93206164 180.24539418 0.64086914 172.89868164 C5.68760522 169.95101926 10.74101742 167.01761891 15.82202148 164.12939453 C12.89226926 161.84188493 9.88201783 159.92960661 6.65795898 158.08251953 C5.63186523 157.49277344 4.60577148 156.90302734 3.54858398 156.29541016 C2.44256836 155.663125 1.33655273 155.03083984 0.19702148 154.37939453 C-0.96980474 153.7097506 -2.1364686 153.03982369 -3.30297852 152.36962891 C-5.72585364 150.97790684 -8.14942198 149.58740349 -10.57348633 148.19775391 C-16.11487906 145.01968407 -21.64583685 141.82353017 -27.17797852 138.62939453 C-29.34070936 137.38194743 -31.50346989 136.13455178 -33.66625977 134.88720703 C-39.1411547 131.72883536 -44.61282677 128.56492039 -50.08374023 125.3996582 C-53.32685089 123.52670269 -56.57443269 121.66168946 -59.82250977 119.79736328 C-64.07105438 117.35632209 -68.2933604 114.87650086 -72.50219727 112.36767578 C-74.51901768 111.18390029 -76.53594033 110.00029893 -78.55297852 108.81689453 C-79.44911865 108.27145996 -80.34525879 107.72602539 -81.26855469 107.1640625 C-88.89508485 102.7315371 -97.0592163 100.22095829 -105.92797852 101.69189453 C-113.90297996 103.97046637 -119.23328265 108.63011626 -124.17797852 115.12939453 C-127.55260566 114.5821577 -129.26032851 114.07449453 -132.17797852 112.12939453 C-130.66088439 108.03783766 -128.70434178 104.28869643 -126.55297852 100.50439453 C-126.17616943 99.83778809 -125.79936035 99.17118164 -125.41113281 98.484375 C-116.91492983 83.55883538 -108.02722758 68.84691768 -99.17797852 54.12939453 C-94.42797852 55.00439453 -94.42797852 55.00439453 -92.17797852 56.12939453 C-93.07332735 63.67590616 -93.07332735 63.67590616 -93.74047852 66.56689453 C-95.27905033 75.57852944 -93.66321595 83.17826324 -88.35766602 90.71533203 C-86.05939303 93.26073114 -83.99775456 94.75721543 -81.05297852 96.50439453 C-80.24401123 96.98815552 -80.24401123 96.98815552 -79.41870117 97.48168945 C-77.34656511 98.71189959 -75.26320589 99.92149895 -73.17797852 101.12939453 C-72.23954102 101.67450684 -71.30110352 102.21961914 -70.33422852 102.78125 C-63.67095043 106.64699243 -56.99479116 110.49006732 -50.31469727 114.32666016 C-46.05631986 116.77403397 -41.80345283 119.23082654 -37.55297852 121.69189453 C-36.80677246 122.1236499 -36.06056641 122.55540527 -35.29174805 123.00024414 C-31.01587955 125.47682499 -26.74688124 127.96483099 -22.48266602 130.46142578 C-11.17237488 137.08107534 0.17033325 143.6317012 11.6003418 150.04296875 C12.50494141 150.55102051 13.40954102 151.05907227 14.34155273 151.58251953 C15.1366626 152.02756836 15.93177246 152.47261719 16.75097656 152.93115234 C18.4807722 153.93195831 20.15920992 155.02085349 21.82202148 156.12939453 C21.76136506 140.39515395 21.68377964 124.6610925 21.58630657 108.92704201 C21.5414334 101.62064689 21.50199946 94.3142996 21.47558594 87.0078125 C21.45253688 80.63588385 21.41906248 74.26410761 21.37331992 67.89230001 C21.34948022 64.52170996 21.33069116 61.15126998 21.32440758 57.78059769 C21.31474795 54.00812782 21.28666451 50.23620226 21.25439453 46.46386719 C21.25582962 45.35902985 21.25726471 44.2541925 21.25874329 43.11587524 C21.15115251 34.18921152 19.94197184 25.03395391 13.82202148 18.12939453 C7.10951223 12.94535038 0.06138193 10.74328988 -8.17797852 9.12939453 C-8.17797852 6.48939453 -8.17797852 3.84939453 -8.17797852 1.12939453 C-5.39344069 -0.26287438 -3.11538516 0.00216043 0 0 Z " fill="#5DFFA7" transform="translate(224.177978515625,85.87060546875)"/>
</svg>
